<?xml version="1.0" encoding="UTF-8"?>
<svg id="Calque_2" xmlns="http://www.w3.org/2000/svg" viewBox="0 0 139.48 156.91">
  <defs>
    <style>
      .cls-1 {
        fill: #fff;
        stroke: #1d1d1b;
        stroke-miterlimit: 10;
      }

      .cls-2 {
        fill: #161819;
      }
    </style>
  </defs>
  <g id="Calque_1-2" data-name="Calque_1">
    <path class="cls-2" d="M29.46,103.49c2.95-3.74,5.13-7.92,6.92-12.32,6.81-10.55,12.14-21.92,18.4-32.77,3.29-4.81,6.38-9.73,8.55-15.16,1.66-2.95,3.33-5.89,4.99-8.84.67-.26,1.34-.53,2.01-.79,5.34,9.49,10.69,18.97,16.03,28.46.9,2.31,1.74,4.64,3.8,6.24,4.72,10.44,10.74,20.16,16.52,30.01,1.35,2.3,3.03,4.39,2.58,7.28-4.02-.37-8.04-.38-12.04.17-1.34-.02-2.67-.05-4.01-.07-16.05-.49-32.1-.61-48.14.09-.62-.02-1.23-.05-1.85-.07-1.99-.52-3.98-.48-5.97-.01-1.01,0-2.02-.01-3.03-.02-.99-.41-1.99-.44-2.99-.05-1.25-.17-2.31-.5-1.76-2.14ZM86.69,77.91c.09-6.71-2.44-11.09-6.76-11.7-5.64-.79-8.85,3.22-9.04,11.3-.17,7.52,2.82,12.4,7.67,12.54,4.88.13,8.03-4.56,8.13-12.14ZM61.35,83.86c1.89-2.1,3.89-4.01,5.5-6.2,2.42-3.29,2.93-6.87-.46-9.81-3.11-2.7-6.79-2.32-10.21-.56-2.04,1.05-3.51,3.29-2.08,5.28,1.64,2.29,3.45.81,4.64-1.15.83-1.36,2.03-1.76,3.37-.92,1.47.92,1.94,2.42,1.02,3.88-.97,1.52-2.22,2.89-3.5,4.18-2.34,2.36-4.76,4.62-6.26,7.68-.94,1.91-1.03,3.23,1.62,3.24,3.82.01,7.65,0,11.47.02,1.37,0,2.25-.53,2.19-2.03-.06-1.4-.29-2.62-2.15-2.72-1.59-.09-3.29.42-5.17-.88Z"/>
    <path class="cls-2" d="M1.41,40.24c.69-2.3,2.7-2.12,4.45-2.33,18.52-2.19,37.07-4.19,55.49-7.15.65.02,1.29.04,1.94.06.23.48.47.96.7,1.45-.25.33-.5.67-.75,1-.61.04-.81.34-.58.92-.94,1.8-1.87,3.59-2.81,5.39-3.85,6.01-7.72,12.02-10.35,18.7-5.53,8.66-10.63,17.57-15.06,26.85-3.88,4.75-6.25,10.43-9.95,16.63-4.02-10.92-7.63-21.04-11.46-31.07-3.63-9.51-6.53-19.3-11.02-28.48-.21-.66-.41-1.32-.62-1.98Z"/>
    <path class="cls-2" d="M60.59,147.3c-1.82-2.65-3.62-5.32-6.43-7.08-.38-.35-.75-.7-1.13-1.05-.01-1.19-1.03-1.53-1.79-2.09-6.69-7.98-13.38-15.96-20.07-23.94,0-.73,0-1.45-.01-2.18,4.32-.05,8.64-.1,12.96-.15,8.4.76,16.79.54,25.19,0,9.92.39,19.85.41,29.77-.03,2.78,1.25,5.82-.23,9.37.99-5.43,6.36-10.68,12.4-15.81,18.53-7.41,8.85-15.45,17.16-22.24,26.52-1.6.43-2.07-1.2-3.15-1.72-1.11-2.47-2.96-4.3-5.06-5.93-.53-.63-1.07-1.26-1.6-1.89Z"/>
    <path class="cls-2" d="M125.62,31.78c-1.49-.12-2.98-.23-4.47-.35-.52-.84-1.23-.93-2.07-.53-1.89-.82-3.87-.66-5.85-.51-2.34-.51-4.6-1.42-7.07-1.17-.61-.04-1.22-.08-1.84-.12-.99-.54-2-.69-3.04-.17-1.36-.23-2.73-.45-4.09-.68-1.86-1.38-3.94-.94-6-.73-1.01-.07-2.02-.13-3.02-.2-.84-.98-1.89-1.1-3.06-.76-2.64-.31-5.27-.72-7.92-.89-3.47-.23-5.67-1.51-5.15-5.44.93-5.41.1-10.87.47-16.29.1-1.49-.81-3.49,1.73-3.93.17.26.41.37.72.33,3.59,3.12,7.68,5.35,12.13,6.97,0,0-.01-.01-.01-.01.32.96,1.02,1.31,1.99,1.22,5.62,3.71,11.42,7.11,17.48,10.06,2.49,2.48,5.58,3.96,8.77,5.28,3.67,2.04,6.64,5.28,10.87,6.35-.19.53-.38,1.06-.57,1.59Z"/>
    <path class="cls-2" d="M43.38,12.23c6.63-3.05,12.88-6.77,19-10.71,2.98-1.65,4.43-1.44,4.25,2.62-.24,5.71-.45,11.46.35,17.17.38,3.5-2.24,3.89-4.66,4.47-14.85.75-29.47,3.52-44.23,5.09-1.74.18-3.84,1.73-5.22-.8,3.77-2.15,7.55-4.3,11.32-6.45.55.3.81.12.84-.49,4.45-2.52,9.22-4.51,13.12-7.93,2.38.14,3.77-1.47,5.22-2.97Z"/>
    <path class="cls-2" d="M134.97,62.05c1.14-2.84,2.28-5.68,3.89-9.7.19,4.06.31,6.88.44,9.7-.41,1.4-.43,2.8.02,4.2,0,10.27,0,20.54,0,30.81-.36,2.38-.51,4.77-.04,7.16-.86,3.59,1.73,8.71-1.33,10.45-1.94,1.11-6.41-2.24-9.76-3.56-1.68-.67-3.39-1.29-5.08-1.93-.02-.64-.38-.79-.93-.63-.91-.31-1.82-.62-2.72-.94-.1-1.19-.2-2.38-.31-3.56,4.84-12.15,9.84-24.25,13.53-36.82,1.77-1.28,1.57-3.44,2.3-5.18Z"/>
    <path class="cls-2" d="M.26,115.1c-.09-.97-.17-1.94-.26-2.91v-57.01c.4-.08.8-.15,1.21-.23,2.32,6.25,4.63,12.49,6.95,18.74,3.73,10.05,7.45,20.1,11.22,30.13.2.54.82.94,1.24,1.4-.18,2.05-1.78,2.5-3.35,3.17-2.71,1.16-5.34,2.52-8,3.8-3,.97-6.01,1.94-9.01,2.91Z"/>
    <path class="cls-2" d="M118.15,112.31c5.5,2.48,11.01,4.97,17.43,7.87-8.27,4.89-15.84,9.36-23.41,13.83-9.39,4.2-17.55,10.82-28.44,15.18,10.54-12.27,20.06-23.35,29.57-34.44,1.29-1.51,2.38-3.32,4.86-2.43Z"/>
    <path class="cls-2" d="M4.26,121.02c.21-.6.43-1.21.64-1.81,1.61-.4,3.32-.58,4.4-2.08,3.8-.63,7.06-2.69,10.51-4.17,2.54-1.09,4.08-.87,5.86,1.31,3.87,4.74,8.01,9.25,12.04,13.86l.52.73c3.89,4.48,7.77,8.97,11.66,13.45.88,1.67,1.76,3.35,2.86,5.45-3.19.12-4.97-2.21-7.31-3.09-11.6-6.61-23.2-13.22-34.8-19.83-1.7-1.99-4.06-2.86-6.38-3.8Z"/>
    <path class="cls-2" d="M93.69,65.21c-1.18-2.2-2.37-4.4-3.55-6.6,0,0-.06-.27-.06-.27,0,0-.27-.08-.27-.08.06-.63-.04-1.17-.76-1.36-4.23-7.67-8.47-15.34-12.66-23.04-.51-.95-2.38-1.96-.2-3.14.67.01,1.35.02,2.02.03,1.01.07,2.02.13,3.03.2.86.91,1.89,1.12,3.06.71,1.93.68,3.93.54,5.92.43.98.54,1.98.94,3.1.4.64.16,1.28.31,1.92.47,1.88,1.17,3.87.99,5.89.48,1.03.16,2.07.32,3.1.48,2.52,1.7,5.32,1.05,8.06.97.65.06,1.29.13,1.94.19.9.74,1.88,1.11,3.04.71,1.32.13,2.63.26,3.95.39,4.32.6,8.51,2.32,12.99,1.54,2.16.16,3.93.69,3.28,3.49-1.58,2.09-2.5,4.42-2.6,7.06-1.48,2.35-2.38,4.91-2.82,7.65-.9.53-1.52,1.2-1.1,2.35-.19.62-.39,1.24-.58,1.85-.83,1.97-1.65,3.95-2.48,5.92-3.6,9.96-7.21,19.91-10.81,29.87-.26.76-.52,1.52-.77,2.28-.98.59-.93,1.59-.99,2.54,0,0-.43.17-.43.17l-.05.46c-7.05-10.15-12.28-21.36-18.57-31.96-.84-1.42-1.72-2.81-2.59-4.21Z"/>
    <path class="cls-2" d="M81.4,77.77c-.19,2.94.16,7.45-2.39,7.41-3.51-.05-2.59-4.54-2.71-7.27-.12-2.68-.45-7.24,2.27-7.22,3.71.02,2.11,4.63,2.83,7.08Z"/>
    <g>
      <path class="cls-1" d="M69.01,119.96c0-4.66.09-10.3.3-13.75h-.09c-1.42,5.68-3.29,13.26-6.22,23.64h-7.84c-2.31-9.65-4.21-17.76-5.65-23.7h-.07c.18,3.42.52,9.09.52,14.13v9.57h-8.53v-29.36h13.66c1.89,6.62,3.75,13.83,4.59,18.77h.06c1.12-5.19,3-12.06,4.97-18.77h13.62v29.36h-9.31v-9.9Z"/>
      <path class="cls-1" d="M98.84,118.68c0,8.17-2.84,11.79-11.65,11.79-1.65,0-3.39-.08-5.03-.35v-6.7c.9.12,2,.17,2.91.17,2.91,0,4.21-.9,4.21-4.26v-18.84h9.57v18.19Z"/>
    </g>
  </g>
</svg>