<?xml version="1.0" encoding="UTF-8"?>
<svg id="Calque_2" xmlns="http://www.w3.org/2000/svg" viewBox="0 0 139.29 156.6">
  <defs>
    <style>
      .cls-1 {
        fill: #161819;
      }
    </style>
  </defs>
  <g id="Calque_1-2" data-name="Calque_1">
    <path class="cls-1" d="M1.79,38.59c6.74-.87,13.64-.69,20.18-2.92,2.6-.21,5.2-.43,7.8-.64,7.42-.51,14.79-1.39,22.1-2.79l1.86-.45c.79.4,1.48.22,2.11-.36,2-.12,4-.24,6-.36,2.94.48,1.71,1.83.84,3.38-6.88,12.11-13.81,24.19-20.49,36.4-4.58,8.39-9.84,16.41-13.65,25.22l-.08.09c-.32.39-.64.78-.95,1.17-1.04,1.1-.84,3.21-3.15,3.57-3.52-9.08-7.06-18.18-10.59-27.29-1.97-7.32-4.42-14.46-7.91-21.2-.12-.6-.23-1.2-.35-1.8-.05-1.58-.73-2.94-1.56-4.24.1-.37-.02-.63-.38-.78-.44-1.76-.41-3.71-1.94-5.05.06-.65.11-1.29.17-1.94Z"/>
    <path class="cls-1" d="M35.04,110.7c14.78.6,29.56.45,44.35.06.67.56,1.33.54,1.96-.07,1.37-.02,2.74-.05,4.11-.07.6.66,1.24.68,1.9.09h20.87c-.69,4.17-3.93,5.84-5.4,8.65-1.76,1.56-3.45,3.18-4.58,5.28-9.11,10.65-18.22,21.31-27.33,31.96-3.1.17-4.01-2.62-5.53-4.35-11.64-13.24-23.17-26.58-34.73-39.89.04-.4.08-.81.11-1.21,1.42-.15,2.85-.3,4.27-.45Z"/>
    <path class="cls-1" d="M65.83,25.48c-1.29.13-2.58.26-3.87.38-1.49-.44-2.83-.13-4.05.8-1.98.1-3.95.19-5.93.29-4.42.68-8.97.45-13.25,1.99-4.93.64-10,.27-14.8,1.91-.54.03-1.09.06-1.63.09-.82.07-1.65.14-2.47.21-2.38-1.18-4.97,2.05-7.29-.34,5.98-3.49,12.24-6.51,17.85-10.62,1.84-.43,3.52-1.14,4.67-2.75,10.59-5.22,20.55-11.52,30.73-17.45,1.93,1.48.49,3.87,1.51,5.6-.11,6.43-.21,12.85-.32,19.28-.38.2-.77.4-1.15.6Z"/>
    <path class="cls-1" d="M73.8,25.52c-1.99-1.27-1.11-3.27-1.14-4.95-.11-5.75.06-11.51-.09-17.26-.09-3.46,1.03-3.63,3.57-1.85,1.33.93,2.88,1.53,4.34,2.28,1.81,1.82,4.08,2.87,6.44,3.75,12.07,7.39,24.29,14.52,36.84,21.07.49,1.5,3.24,1.38,2.63,3.67-.45-.04-.91-.08-1.36-.11-4.55-1.94-9.47-1.48-14.21-2.19-1.64-.11-3.28-.23-4.92-.34-5.85-2.13-12.06-1.58-18.09-2.41-.63-.11-1.27-.22-1.9-.33-.35-.01-.69-.02-1.04-.03-.96-.04-1.92-.07-2.87-.11-2.65-.92-5.33-1.61-8.17-1.19Z"/>
    <path class="cls-1" d="M9.38,75.11c3.41,9.64,6.64,19.35,10.33,28.88,1.02,2.62.47,3.54-1.75,4.45-5.64,2.33-11.25,4.73-17.95,7.57,0-13.85,0-27.17,0-40.48.55-2.01.5-4.03,0-6.05,0-4.91.01-9.82.02-14.73,1.5.35,1.79,1.55,2.35,2.81,2.55,5.76,3.71,12.08,7,17.54Z"/>
    <path class="cls-1" d="M4.66,121.43c-.26-1.16.25-1.72,1.33-2.17,4.94-2.07,9.87-4.19,14.75-6.42,1.71-.78,3.12-.74,4.47.55,6.85,9.36,14.96,17.66,22.29,26.62,2.15,2.62,5.28,4.67,5.55,8.54-7.98-4.44-15.97-8.87-23.94-13.33-4.88-2.73-9.73-5.5-14.59-8.26-3.15-2.09-6.13-4.48-9.87-5.53Z"/>
    <path class="cls-1" d="M105.7,138.18c-6.67,2.66-12.05,8.03-20.65,10,6.78-8.18,12.68-15.29,18.59-22.41,1.42-.76,2.53-1.82,3.07-3.38,1.99-2.2,4.32-4.18,5.9-6.65,2.42-3.78,5.18-4.11,8.68-1.86,4.25,2.73,9.58,3.13,13.96,6.66-8.22,5.01-16.3,9.92-24.38,14.84-1.99.43-3.83,1.16-5.15,2.81Z"/>
    <path class="cls-1" d="M29.38,104.38c.86-1.04,1.68-2.1,1.67-3.55,5.11-7.07,8.91-14.92,13.25-22.45,8.02-13.94,15.94-27.94,23.68-42.03,1.37-2.49,2.22-2.15,3.73-.57.31,1.89,1.54,3.26,2.66,4.68-.21.54.06.79.55.9.12.36.24.73.36,1.09-.2.59.03.88.64.91,3.01,5.37,6.03,10.74,9.04,16.11-.15.96.42,1.5,1.13,1.97,1.09,2.01,2.18,4.01,3.27,6.02-.15.53.07.75.6.69.15.44.3.88.45,1.32-.27.55-.09.77.5.72.8,1.38,1.6,2.76,2.4,4.14-.05.93.49,1.42,1.28,1.73,3.87,9.13,9.57,17.28,14.04,26.08.66,1.3,2.6,2.61.15,4.05-.98-.12-1.96-.35-2.94-.35-23.75,0-47.5.06-71.25.02-1.79,0-4.11,1.16-5.23-1.48ZM69.95,89.3c2.99,1.43,4.28.5,4.06-2.81-.17-2.63-.17-5.27-.25-7.9.12-1.97.4-3.94.31-5.9-.11-2.21,1.26-5.16-1.06-6.44-2.78-1.53-3.66,1.9-5.34,3.22-1.16.92-2.46,1.68-3.46,2.75-.83.88-.8,2.16-.18,3.24.4.71,1.17.61,1.71.22,4.69-3.34,2.77,1.61,3.72,2.95,0,.62-.01,1.25-.02,1.87-.28,2.96-1.08,5.95.51,8.8Z"/>
    <path class="cls-1" d="M100.75,77.82c-2.04-3.77-4.08-7.54-6.13-11.3.15-.63-.12-.96-.75-1.03-3.48-6.32-6.97-12.63-10.45-18.95.1-.5-.06-.78-.61-.7-2.45-4.4-4.91-8.79-7.36-13.19.91-2.33,3.09-.55,4.46-1.38,1.33.06,2.65.13,3.98.19.92.73,1.9,1.15,3.08.67.62.1,1.25.2,1.87.3,5.67.86,11.27,2.37,17.09,1.8,2.21.7,4.4,1.53,6.8,1.07,3.07.28,6,1.61,9.16,1.27.85.08,1.71.15,2.56.23.76.53,1.55.53,2.37.13,1.02.13,2.05.26,3.07.38.82,1.03,1.91,1,3.06.78.62.04,1.25.08,1.87.12.35,0,.71.02,1.06.03,2.3.25,2.08,1.75,1.52,3.26-7.1,19.22-14.22,38.43-21.37,57.62-.26.7-.94,1.24-1.64,2.14-4.45-7.77-8.72-15.23-13-22.69.08-.51-.12-.75-.64-.73Z"/>
    <path class="cls-1" d="M139.29,109.46c-.17,2.11-.34,4.23-.51,6.34-5.28-2.31-10.44-5.01-15.89-6.8-4.05-1.33-3.91-3.37-2.73-6.5,5.81-15.42,11.57-30.86,17.33-46.31.28-.76.38-1.59.56-2.38l.92-.34c.11,5.33.22,10.67.33,16v1.04c0,1.3,0,2.6,0,3.9-.36,5.72-.45,11.44,0,17.15,0,5.96,0,11.92,0,17.89Z"/>
  </g>
</svg>