<?xml version="1.0" encoding="UTF-8"?>
<svg id="Calque_2" xmlns="http://www.w3.org/2000/svg" viewBox="0 0 126.32 163.64">
  <g id="Calque_1-2" data-name="Calque_1">
    <path d="M64.83,97.12c1.09,25.01-3.29,48.19-22.09,66.51-2.34-2.24-4.61-4.41-7.42-7.1,18.74-15.43,24.83-36.09,25.63-58.41-2.31,5.76-4.27,12.28-7.43,18.17-4.52,8.43-11.91,11.54-20.5,9.54-7.75-1.8-11.49-7.57-13.4-14.66-.7-2.59-1.8-3.73-4.41-4.43-7.93-2.11-13.9-6.53-15-15.35-1.15-9.19,3.52-15.24,11.17-19.39,10.19-5.52,21.44-6.9,32.71-8.1,1.47-.16,2.96-.22,4.24-.32-8.5-1.54-17.2-2.79-25.73-4.79-4.46-1.05-8.85-2.99-12.83-5.29C2.7,49.42-1,43.15.23,34.72c1.18-8.08,6.6-12.56,13.94-14.63,3.28-.93,4.92-2.16,5.79-5.57C22.05,6.39,27.2.98,35.89.17c8.25-.77,14,3.5,17.95,10.34,5.54,9.59,7.24,20.27,8.35,31.08.17,1.64.26,3.28,1.34,5.05.53-4.21.96-8.44,1.62-12.63,1.5-9.59,3.54-19.05,9.75-26.9,8.13-10.29,22.87-9.24,29.3,2.04,1.06,1.86,2.09,3.9,2.41,5.98.46,2.97,2.03,4.02,4.75,4.74,7.79,2.07,13.56,6.49,14.75,15.02,1.24,8.9-3.07,15.01-10.51,19.26-10.41,5.93-22.02,7.19-33.61,8.54-1.31.15-2.63.23-3.61.31,8.52,1.57,17.41,2.82,26.08,4.95,4.59,1.12,9.04,3.37,13.13,5.82,6.58,3.94,9.55,10.08,8.54,17.8-.97,7.4-5.49,12.13-12.34,14.23-4.33,1.33-6.68,3.21-8,7.88-2.04,7.21-7.17,11.85-15.09,12.61-7.64.73-13.62-2.45-17.14-8.86-3.46-6.3-5.75-13.25-8.71-20.29Z"/>
  </g>
</svg>